<?xml version="1.0" encoding="utf-8"?>
<!-- Generator: Adobe Illustrator 24.2.3, SVG Export Plug-In . SVG Version: 6.00 Build 0)  -->
<svg version="1.1" xmlns="http://www.w3.org/2000/svg" xmlns:xlink="http://www.w3.org/1999/xlink" x="0px" y="0px"
	 viewBox="0 0 200 210" style="enable-background:new 0 0 200 210;" xml:space="preserve">
<style type="text/css">
	@import url(https://fonts.googleapis.com/css2?family=Roboto)
	@import url(https://fonts.googleapis.com/css2?family=Nunito)
	.st0{fill:none;}
	.st30{fill:#DEDEDE;}
	.st1{fill:#1D67AF;}
	.st2{fill:#1A65AE;}
	.st3{opacity:0.89;fill:#DEDEDE;}
	.st4{fill:#234369;}
	.st5{font-family:'Roboto';}
	.st6{font-size:14.5443px;}
	.st7{font-family:'Nunito';}
	.st8{font-size:7.1452px;}
	.st9{font-family:'Nunito';}
	.st10{font-size:7px;}
	.st11{fill:none;}
	.st12{font-family:'Roboto';}
	.st13{font-size:11.4932px;}
	.st14{fill:#FF6699;}
	.st15{font-size:21.1358px;}
	.st16{font-size:18.2207px;}
	.st17{font-weight:400;}
	.st18{font-weight:300;}
	.st19{font-weight:500;}
</style>
<style>
	svg g#datos-camanchaca {
     /* con mouse encima del svg, se muestra */
    display: none;
            }
	svg:hover g#datos-camanchaca {
     /* con mouse encima del svg, se muestra */
    display: inherit;
            }
    svg:hover {
    cursor: grab;
            }
</style>
<g id="logo-camanchaca">
	<g>
		<circle class="st30" cx="100" cy="105" r="100"/>
		<g>
			<g>
				<path class="st1" d="M68.8,148.6c0.2,0.5,0.1,0.9,0.1,1.5c0.1,1.1,0.5,1.5,1.5,1.6c0.2,0,0.5-0.2,0.5,0.2c0,0.5-0.4,0.2-0.5,0.2
					c-1.9,0-3.8,0-5.6,0c-0.2,0-0.5,0.2-0.5-0.2c0-0.5,0.3-0.3,0.5-0.3c1.1-0.1,1.5-0.4,1.6-1.4c0.1-2.7,0.2-5.5-0.1-8.2
					c-0.2-1.8-1.5-2.5-3.2-1.9c-0.3,0.1-0.6,0.2-0.8,0.4c-1.1,0.5-1.7,1.3-1.6,2.7c0.2,2.2,0,4.3,0.1,6.5c0,1.4,0.4,1.8,1.8,1.9
					c0.2,0,0.5-0.1,0.5,0.3c0,0.3-0.2,0.2-0.4,0.2c-1.9,0-3.9,0-5.9,0c-0.2,0-0.4,0.1-0.4-0.2s0.2-0.3,0.4-0.3
					c1.2-0.1,1.5-0.5,1.5-1.6c0-2.8,0-5.6,0-8.4c0-1.2-0.4-1.6-1.6-1.2c-0.2,0.1-0.4,0-0.5-0.2c-0.1-0.3,0.2-0.3,0.3-0.4
					c1.2-0.5,2.3-0.9,3.5-1.4c0.6-0.2,0.8-0.2,0.8,0.5s0,1.4,0,2.2c0.6-0.5,1.1-1.1,1.5-1.5c1.1-0.9,2.3-1.5,3.8-1.2
					c1.5,0.2,2.3,1.2,2.8,2.9c0.6-0.6,1-1.2,1.5-1.7c1-0.9,2.2-1.3,3.5-1.2c1.5,0.1,2.5,1,2.9,2.6c0.2,0.7,0.3,1.5,0.3,2.2
					c0,2.2,0,4.5,0,6.7c0,1.4,0.3,1.7,1.7,1.9c0.2,0,0.3,0,0.3,0.2s-0.2,0.3-0.4,0.3c-2,0-3.9,0-5.9,0c-0.2,0-0.4,0-0.4-0.3
					s0.2-0.2,0.4-0.2c1.5-0.2,1.8-0.5,1.8-1.9c0-2.2,0-4.4,0-6.6c0-0.3,0-0.7-0.1-1c-0.2-1.7-1.2-2.4-3.2-1.9
					c-0.9,0.2-1.6,0.9-2.4,1.6c-0.2,0.2-0.2,0.5-0.2,0.7C68.8,144.6,68.8,146.6,68.8,148.6C68.8,148.5,68.8,148.6,68.8,148.6z"/>
				<path class="st1" d="M127.1,141.1c0.5-0.5,0.9-1.2,1.5-1.6c0.6-0.5,1.3-0.9,2.2-1.1c1.7-0.3,2.9,0.4,3.6,1.9
					c0.5,1.1,0.5,2.2,0.5,3.4c0,2.1,0,4.2,0,6.3c0,1.1,0.3,1.5,1.4,1.7c0.2,0,0.6-0.2,0.5,0.3c0,0.5-0.4,0.2-0.6,0.2
					c-1.8,0-3.6,0-5.4,0c-0.2,0-0.5,0.2-0.6-0.2c0-0.5,0.4-0.2,0.5-0.3c1.2-0.1,1.5-0.5,1.5-1.6c0-2.5,0-5.1,0-7.6
					c0-2.2-1.5-2.7-3.3-2.2c-0.8,0.3-1.4,0.9-2,1.5c-0.2,0.2-0.2,0.4-0.2,0.6c0,2.5,0,5,0,7.5c0,1.2,0.4,1.6,1.6,1.7
					c0.2,0,0.5-0.1,0.5,0.2c0,0.4-0.3,0.2-0.5,0.2c-1.9,0-3.8,0-5.6,0c-0.2,0-0.5,0.2-0.5-0.2s0.3-0.2,0.5-0.2
					c0.9-0.1,1.4-0.5,1.5-1.4c0.1-0.4,0.1-0.8,0.1-1.2c0-4.2,0-8.6,0-12.8c0-0.6,0-1.3-0.1-1.9c-0.1-1-0.5-1.3-1.5-1.1
					c-0.2,0.1-0.5,0.2-0.5-0.2c-0.2-0.4,0.2-0.4,0.4-0.5c1.1-0.5,2.2-0.9,3.2-1.3c0.8-0.4,1-0.2,1,0.7c0,2.7,0,5.5,0,8.2
					c0,0.2,0,0.5,0,0.7C127,140.9,127,141,127.1,141.1z"/>
				<path class="st1" d="M26.2,142.5c-0.1,1.4,0.2,2.9,0.6,4.2c1.3,3.6,4.7,4.9,7.8,4.6c1.8-0.2,3.2-1.1,4.2-2.4
					c0.4-0.5,0.8-0.9,1.2-1.4c0.2-0.2,0.2-0.4,0.5-0.2c0.2,0.2,0.2,0.3,0,0.5c-1.4,2.3-3.2,4.1-5.9,4.6c-3.6,0.6-6.8,0-9.3-2.8
					c-1.6-1.8-2.4-3.9-2.5-6.3c-0.2-3.4,0.7-6.5,3.2-8.9c2.9-2.9,7.4-3.6,11-1.8c1.4,0.7,1.5,0.6,2.2-0.8c0.1-0.2,0.2-0.2,0.4-0.2
					s0.2,0.2,0.2,0.4c0.1,0.8,0.1,1.5,0.2,2.3c0.1,1.2,0.2,2.4,0.2,3.6c0,0.2,0.1,0.3-0.2,0.4c-0.2,0.1-0.3-0.1-0.4-0.3
					c-0.2-0.6-0.5-1.2-0.8-1.9c-1.2-2.5-3.3-3.7-6.1-3.6c-2.7,0.1-4.6,1.4-5.7,3.9C26.5,138.5,26.2,140.4,26.2,142.5z"/>
				<path class="st1" d="M106.4,149.7c0,0.2,0.1,0.4,0.1,0.6c0.2,0.9,0.5,1.2,1.5,1.3c0.2,0,0.5-0.2,0.5,0.2s-0.3,0.2-0.5,0.2
					c-1.9,0-3.8,0-5.6,0c-0.2,0-0.5,0.1-0.5-0.2c0-0.4,0.3-0.2,0.5-0.3c1.2-0.1,1.5-0.3,1.6-1.5c0.2-2.4,0.1-4.8,0.1-7.3
					c0-0.5-0.1-0.8-0.2-1.3c-0.3-1.3-1.2-1.9-2.5-1.5c-1.1,0.2-2,0.9-2.8,1.7c-0.2,0.2-0.2,0.4-0.2,0.5c0,2.5,0,4.9,0,7.4
					c0,1.3,0.4,1.7,1.7,1.8c0.2,0,0.5-0.1,0.5,0.2s-0.2,0.2-0.5,0.2c-1.9,0-3.9,0-5.8,0c-0.2,0-0.5,0.1-0.5-0.3
					c0-0.3,0.3-0.2,0.5-0.2c1.1-0.1,1.5-0.5,1.5-1.5c0.2-2.9,0.2-5.9,0-8.9c-0.1-0.9-0.5-1.2-1.5-1c-0.2,0.1-0.5,0.2-0.6-0.2
					c-0.2-0.4,0.2-0.4,0.5-0.5c1.1-0.5,2.2-0.9,3.2-1.3c0.8-0.3,0.9-0.2,0.9,0.6c0,0.6,0,1.3,0,2.1c0.6-0.7,1.1-1.2,1.7-1.7
					c1.1-0.8,2.2-1.4,3.6-1.1c1.1,0.2,1.8,0.8,2.2,1.8c0.3,0.7,0.5,1.5,0.5,2.2c0,2.4,0,4.8,0,7.2c0,0-0.1,0-0.1,0.1
					C106.4,149.7,106.4,149.7,106.4,149.7z"/>
				<path class="st1" d="M50.5,150.3c-0.7,0.5-1.3,1-1.9,1.4c-1.7,1.2-3.8,0.9-4.9-0.5c-1.2-1.6-0.8-3.8,0.8-5.1
					c1.6-1.2,3.5-1.9,5.3-2.6c0.5-0.2,0.8-0.5,0.8-1.1c-0.1-0.5-0.1-1-0.2-1.5c-0.4-1.5-1.7-2.2-3.2-1.7c-0.8,0.3-1.3,0.9-1.2,1.9
					c0,0.3,0.1,0.7,0,1c-0.2,0.5-0.5,0.8-1.1,0.9s-1.1-0.2-1.2-0.8c-0.3-1,0-1.9,0.7-2.5c1.4-1.5,3.2-1.6,5-1.5
					c0.6,0.1,1.2,0.2,1.8,0.5c1.1,0.5,1.6,1.3,1.8,2.5c0.2,1.9,0.1,3.9,0.1,5.8c0,0.8,0,1.8,0,2.6c0,0.4,0.1,0.7,0.4,0.8
					c0.4,0.2,0.7,0,0.9-0.2s0.5-0.5,0.8-0.7c0.2,0.5,0.1,0.8-0.2,1.1c-0.5,0.5-1,1.1-1.6,1.5c-1.4,0.8-2.5,0.3-2.8-1.3
					C50.5,150.7,50.5,150.5,50.5,150.3z M50.5,146.8c0-0.7,0-1.5,0-2.2c0-0.4-0.1-0.5-0.5-0.3c-0.8,0.4-1.5,0.6-2.3,1
					s-1.4,0.8-1.9,1.5c-0.6,1-0.5,2.3,0.2,3.2c0.7,0.8,1.6,0.8,2.8,0.3c0.3-0.2,0.5-0.3,0.8-0.5c0.6-0.3,0.8-0.8,0.8-1.5
					C50.5,147.8,50.5,147.3,50.5,146.8z"/>
				<path class="st1" d="M172.5,150.3c-0.7,0.5-1.4,1-2.1,1.5c-1.6,1.1-3.6,0.8-4.7-0.5c-1.2-1.5-0.9-3.7,0.5-5
					c1.2-1.1,2.5-1.6,3.9-2.2c0.5-0.2,1.1-0.5,1.6-0.6c0.7-0.2,0.8-0.5,0.8-1.2c-0.1-0.5-0.2-1.1-0.2-1.6c-0.5-1.8-2.6-1.9-3.6-1.2
					c-0.5,0.3-0.7,0.8-0.7,1.3c0,0.3,0,0.7,0,1c-0.1,0.7-0.5,1.2-1.2,1.2s-1.2-0.4-1.2-1.1c-0.2-1.2,0.4-2,1.2-2.7
					c1.6-1.2,4.9-1.5,6.7-0.5c0.8,0.5,1.2,1.1,1.3,1.9c0.1,0.8,0.2,1.5,0.2,2.3c0,1.9,0,3.9,0,5.8c0,0.3,0,0.6,0.1,0.9
					c0.2,0.7,0.6,0.9,1.2,0.5c0.3-0.2,0.5-0.5,0.9-0.8c0.2,0.5,0.1,0.8-0.2,1.1c-0.5,0.6-1,1.2-1.7,1.5c-1.5,0.8-2.5,0.2-2.7-1.5
					C172.5,150.5,172.5,150.5,172.5,150.3z M172.5,146.8c0-0.7,0-1.4,0-2.2c0-0.5-0.2-0.5-0.5-0.3c-0.6,0.3-1.3,0.5-1.9,0.8
					c-0.8,0.4-1.5,0.8-2.1,1.5c-0.8,1-0.7,2.4,0.1,3.3c0.7,0.8,1.7,0.9,2.9,0.3c0.2-0.2,0.5-0.3,0.7-0.4c0.6-0.3,0.9-0.8,0.8-1.5
					C172.4,147.8,172.5,147.3,172.5,146.8z"/>
				<path class="st1" d="M150.3,149.5c0.2,0.4,0.1,0.8-0.2,1.1c-0.5,0.5-1,1.2-1.7,1.5c-1.4,0.8-2.8,0.2-2.8-1.3
					c0-0.2-0.1-0.2-0.2-0.5c-0.7,0.5-1.4,1.1-2.2,1.5c-1.8,1.2-4,0.6-4.9-1.1c-0.8-1.6-0.5-3.5,0.9-4.6c1.4-1.2,3.1-1.8,4.8-2.5
					c1.5-0.6,1.5-0.6,1.3-2.2c-0.2-1.9-1.5-2.8-3.2-2.3c-1,0.3-1.4,0.9-1.3,1.9c0,0.3,0,0.6-0.1,0.9c-0.2,0.6-0.6,0.9-1.2,0.9
					s-1.1-0.5-1.2-1.1c-0.2-1.1,0.3-1.9,1.1-2.5c1.5-1.3,5.1-1.6,6.9-0.5c0.8,0.5,1.2,1.2,1.3,2.2c0.2,2.6,0,5.3,0.2,7.9
					c0,0.5-0.2,1.2,0.5,1.5c0.6,0.2,1-0.3,1.4-0.7C150.1,149.7,150.2,149.5,150.3,149.5z M145.6,146.8c0-0.8,0-1.5,0-2.2
					c0-0.2,0-0.5-0.3-0.3c-1.4,0.6-2.8,1-3.9,2.2c-0.8,0.8-1,1.7-0.7,2.7c0.3,1.1,1.2,1.8,2.2,1.6c1.5-0.2,2.7-1.2,2.7-2.4
					C145.6,147.8,145.6,147.3,145.6,146.8z"/>
				<path class="st1" d="M92.8,149.5c0.2,0.5,0.1,0.8-0.2,1.1c-0.5,0.6-1.1,1.2-1.9,1.6c-1.3,0.6-2.3,0.1-2.5-1.4
					c0-0.2,0-0.3-0.2-0.5c-0.7,0.5-1.4,1-2.1,1.5c-2.1,1.3-4.6,0.4-5.2-1.9c-0.3-1.3-0.1-2.5,0.9-3.6c0.9-0.9,2.1-1.5,3.2-2
					c0.8-0.4,1.8-0.8,2.7-1.1c0.4-0.2,0.5-0.3,0.5-0.7c0-0.6,0-1.2-0.2-1.9c-0.5-1.5-1.9-2.2-3.3-1.5c-0.7,0.3-1.1,0.9-1.1,1.7
					c0,0.2,0,0.4,0,0.6c0,0.9-0.5,1.5-1.3,1.4s-1.2-0.8-1.2-1.6c0.2-1.3,1-2.1,2.2-2.5c1.7-0.8,3.5-0.8,5.2-0.2c1.4,0.5,2,1.5,2,3.2
					c0,2.3,0,4.7,0,7c0,0.5-0.2,1.3,0.5,1.6s1-0.4,1.5-0.8C92.6,149.7,92.7,149.6,92.8,149.5z M88.1,146.8c0-0.4,0-0.8,0-1.2
					c0-1.5,0-1.5-1.4-0.9c-1.1,0.5-2.2,0.9-3,1.9c-0.8,0.9-0.9,2.4-0.2,3.4c0.7,0.9,1.7,1,2.9,0.4c0.2-0.2,0.5-0.3,0.8-0.5
					c0.6-0.3,0.8-0.8,0.8-1.5C88.1,147.8,88.1,147.3,88.1,146.8z"/>
				<path class="st2" d="M151.5,145c0-2.7,1.5-5.2,4.2-6.3c1.9-0.8,3.9-0.6,5.6,0.6c0.7,0.5,1.2,1.1,1.2,1.9
					c0.1,0.8-0.2,1.2-0.8,1.4c-0.8,0.2-1.6-0.1-1.9-0.8c-0.1-0.2-0.2-0.5-0.2-0.7c-0.2-1.7-1.2-2.5-2.9-1.9
					c-1.5,0.5-2.2,1.7-2.5,3.1c-0.5,1.9-0.2,3.7,0.7,5.5c0.7,1.3,1.7,2.2,3.3,2.4c1.8,0.1,2.9-0.8,3.8-2.2c0.2-0.3,0.3-0.6,0.5-0.9
					c0.1-0.2,0.2-0.3,0.4-0.2s0.2,0.2,0.2,0.4c-0.2,2.3-2.5,4.8-4.7,5.2c-2.4,0.4-4.6-0.8-5.8-3.2
					C151.8,148.2,151.5,146.8,151.5,145z"/>
				<path class="st2" d="M109.7,145.5c0-3.2,1.5-5.7,4.2-6.8c1.9-0.8,3.9-0.6,5.6,0.6c0.7,0.5,1.2,1.1,1.2,2
					c0.1,0.6-0.2,1.2-0.8,1.4c-0.8,0.2-1.6,0-1.9-0.6c-0.2-0.2-0.2-0.5-0.2-0.8c-0.1-1.7-1.2-2.3-2.9-1.9c-1.2,0.3-1.9,1.2-2.2,2.2
					c-0.8,2.4-0.6,4.7,0.8,6.8c1.6,2.5,4.8,2.5,6.5,0c0.3-0.4,0.5-0.8,0.8-1.3c0.1-0.2,0.2-0.3,0.4-0.2c0.2,0.1,0.2,0.2,0.2,0.3
					c-0.7,2.9-2.9,5.8-6.6,5.2c-2.2-0.4-3.5-1.9-4.2-3.9C109.9,147.6,109.7,146.5,109.7,145.5z"/>
				<path class="st2" d="M68.8,148.6c-0.1-0.1-0.1-0.1,0-0.2C68.8,148.5,68.8,148.5,68.8,148.6z"/>
				<path class="st2" d="M106.4,149.7L106.4,149.7c-0.1-0.1-0.1-0.1,0-0.2C106.4,149.6,106.4,149.7,106.4,149.7z"/>
			</g>
			<g>
				<path class="st2" d="M118.7,105.6c-1.5,2.8-3.7,3.9-6.8,3.4c-2.2-0.3-4.1-1.3-6-2.6c2.2-0.1,4-0.7,5.5-1.9
					c1.6-1.2,2.5-2.9,2.4-5c-0.2,0.3-0.4,0.6-0.6,0.9c-1.7,2.7-4.1,4.4-7.5,4.6c-1.7,0.1-3.1-0.6-4.2-1.9c-0.6-0.8-1-1.5-1.4-2.5
					c3,0.6,5.9,0.6,7.6-2.6c-0.7,0.3-1.3,0.6-1.9,0.9c-1.3,0.6-2.7,0.8-4.2,0.5c-1.6-0.4-3.1-2-3.5-3.7c-0.1-0.3,0-0.4,0.3-0.6
					c3.5-1.9,4.3-5.1,4.2-8.7c-0.1-3.2-0.2-3.2-2.6-5.4c-0.6-0.5-1.1-0.9-1.7-1.5c0.9-0.6,0.9-1.4,0.9-2.4c0-2-0.1-4,0-5.9
					c0.2-3.3,3.1-5.9,6.5-5.7c-1.1,1.8-1.4,3.8-1.6,5.9c-0.2,2.6,0.1,5,1.2,7.4c1.2,2.6,1.7,5.5,1.5,8.4c-0.1,0.7,0.2,0.9,0.9,0.8
					c3.3-0.6,5.7-2.2,6.8-5.4c0.1-0.2,0.2-0.5,0.5-0.4c0.4,0.1,0.2,0.4,0.2,0.6c-0.4,1,0.3,1.3,1.1,1.6c1.8,0.7,3.6,0.6,5.4-0.1
					c0.8-0.3,0.9-0.7,0.8-1.4c0-0.2-0.4-0.5,0.1-0.7c0.4-0.1,0.5,0.2,0.6,0.5c0.7,1.9,1.8,3.3,3.6,4.3c1,0.6,2.3,0.9,3.4,1.1
					c0.5,0.1,0.7-0.2,0.7-0.6c0-1.3-0.1-2.6,0.1-3.9c0.3-2,0.9-4,1.8-5.8c0.9-2,0.9-4.1,0.8-6.1c-0.2-2.1-0.4-4.2-1.6-6
					c3.5-0.2,6.5,2.6,6.6,6c0,2,0,4.1,0,6c0,0.8,0.1,1.4,0.9,1.9c-1.1,1-2.3,2-3.4,2.9c-0.4,0.3-0.6,0.7-0.7,1.1
					c-0.4,2.5-0.6,4.8,0.3,7.3c0.6,1.8,1.7,3.3,3.4,4.2c0.5,0.3,0.5,0.5,0.4,0.9c-0.9,2.7-3.3,4.1-6.3,3.3c-1.1-0.3-2.1-0.8-3.1-1.3
					c0.1,2.1,3.2,3.1,7.5,2.6c-1.5,4.1-4.3,5.1-8,3.9c-2.2-0.8-3.7-2.2-4.9-4.1c-0.2-0.3-0.4-0.7-0.6-1c-0.9,2.9,2.9,6.5,7.6,6.9
					c0.1,0.3-0.2,0.3-0.3,0.4c-1.8,1.2-3.8,2.2-6,2.4C122,109.3,120,108.1,118.7,105.6z M128,92.1c0.9-0.1,1.7-0.1,2.6-0.2
					c0.2,0,0.6-0.2,0.6-0.5c0-0.4-0.4-0.3-0.7-0.2c-0.7,0-1.2,0.1-1.9,0c-3.7-0.2-7.1-0.9-9.5-4.3c-0.5-0.6-0.9-0.4-1.2,0.1
					c-1.2,1.8-3,2.8-5,3.4c-2,0.7-4.1,0.8-6.1,0.7c-0.3,0-0.6-0.1-0.7,0.2c-0.1,0.4,0.3,0.5,0.6,0.5c0.2,0,0.4,0.1,0.5,0.1
					c1.9,0.1,3.8,0.2,5.7-0.2c0.6-0.1,0.9,0,1.1,0.5c0.5,0.8,1.1,1.1,2.1,1c1.7,0,3.4,0,5.1,0c1,0,1.8-0.3,2.3-1.1
					c0.2-0.4,0.5-0.5,0.9-0.4C125.6,92.1,126.8,92.1,128,92.1z"/>
				<path class="st2" d="M87.8,106.8c-0.4-1-0.7-1.9-0.9-2.8c-1.1-3.4-2.3-6.7-3.4-10.1c-0.2-0.6-0.5-0.7-1-0.5
					c-1.8,0.7-3.5,1.3-5.3,1.9c-1.8,0.7-2.7,0.2-3.5-1.5c-2.5-5.5-5.2-10.7-9.2-15.2c-1.3-1.6-2.8-3-4.6-4.2
					c-0.5-0.3-1.1-0.7-0.8-1.2c0.3-0.6,0.9-0.2,1.4,0c2.6,1,4.7,2.6,6.7,4.5c4.2,4,7.4,8.6,10.2,13.5c0.5,0.8,0.9,0.9,1.7,0.7
					c0.9-0.4,1.8-0.7,2.7-0.9c0.4-0.1,0.5-0.3,0.3-0.7c-2.6-7.5-5-14.8-7.6-22.3c0-0.1-0.1-0.1-0.2-0.3c-0.3,0.9-0.5,1.5-0.7,2.3
					c-0.1,0.4-0.2,0.8-0.7,0.7s-0.4-0.6-0.4-0.9c0-3.1,0.1-6.3,0.1-9.5c0-0.3-0.1-0.7,0.3-0.8s0.6,0.2,0.8,0.4c2,2.4,4,4.8,6,7.2
					c0.2,0.3,0.6,0.7,0.3,0.9c-0.3,0.4-0.8,0.1-1-0.1c-0.6-0.4-1.2-0.9-1.8-1.2c-0.2,0.3,0,0.5,0.1,0.6c2.7,7.2,5.5,14.3,8.1,21.5
					c0.2,0.6,0.4,0.8,1,0.5c0.9-0.4,1.8-0.7,2.6-0.9c0.7-0.2,0.9-0.7,0.8-1.3c-0.5-2.5-0.8-4.9-0.9-7.5c-0.2-2.6-0.2-5.3,0-8
					c0.2-2.5,0.7-4.8,1.4-7.1c0.3-0.9,0.8-1.9,1.2-2.7c0.2-0.3,0.5-0.8,0.9-0.6c0.5,0.2,0.5,0.7,0.3,1.1c-1.1,3.3-1.2,6.8-1,10.2
					C92,77,93,81.6,94.3,86.1c0.6,2.2,0.2,3-1.9,3.7c-1.7,0.6-3.4,1.2-5.1,1.8c-0.6,0.2-0.7,0.4-0.5,0.9c1.9,4.9,3.8,9.7,5.6,14.6
					c0.2,0.5,0.5,0.7,0.9,0.8c5.6,1.1,11.2,2.3,16.7,3.3c4.5,0.9,9.2,1.4,13.9,1.3c5.8-0.1,11.2-1.2,16.4-4.3
					c0.2-0.1,0.4-0.5,0.7-0.2c0.2,0.2-0.1,0.5-0.2,0.7c-2.6,4.6-6.5,7.4-11.6,8.5c-3.7,0.8-7.4,0.6-11.1,0.2
					c-7.7-0.8-15.2-2.8-22.8-4.3c-5.3-1.1-10.7-2-16.3-2.1c-6.6-0.2-12.9,0.8-18.8,4.3c-0.2,0.1-0.4,0.3-0.5,0.1
					c-0.2-0.3,0-0.5,0.2-0.7c2.2-4,5.4-6.7,9.7-8c3.4-1,6.8-1.1,10.3-0.9c2.5,0.2,4.8,0.5,7.3,0.9C87.4,106.9,87.6,106.8,87.8,106.8
					z"/>
				<path class="st2" d="M77.4,113.9c5.9,0,11.2,0.9,16.5,2.2c6.5,1.5,13,3.1,19.8,3.9c1.9,0.2,3.7,0.4,5.6,0.5
					c0.3,0,0.6-0.1,0.8,0.3c0.1,0.3-0.2,0.5-0.3,0.7c-2.8,3.3-6.4,5.1-10.9,5.2c-3.8,0.1-7.4-0.7-11.1-1.2
					c-4.7-0.8-9.5-1.7-14.3-2.1c-3.4-0.3-6.7-0.4-10,0.6c-3,0.9-5.4,2.6-6.7,5.5c-0.3,0.6-0.7,0.6-1.1,0.4c-2-0.5-3.3-1.8-4.3-3.4
					c-1.7-2.9-1-6.1,1.7-8.4c2.5-2.1,5.4-2.8,8.5-3.3C73.6,114,75.7,113.9,77.4,113.9z"/>
				<path class="st2" d="M113.5,43.3c0.5,1.8,1,3.5,1.5,5.3c0.7,2.3,1.3,4.4,2,6.7c0.2,0.5,0.4,0.7,0.9,0.7c0.8-0.1,1.7,0.3,2.2-0.2
					s0.5-1.3,0.7-2c0.9-3.2,1.8-6.3,2.7-9.5c0.1-0.3,0.1-0.7,0.4-0.9c0.4,0.2,0.3,0.5,0.3,0.8c0.7,4,1.3,7.8,2,11.8
					c0.1,0.5,0.3,0.8,0.8,0.8c0.1,0,0.2,0,0.3,0.1c2.2,0.5,2.2,0.5,3.1-1.6c1.6-3.4,3.2-6.8,4.8-10.2c0.1-0.3,0.2-0.8,0.7-0.6
					c0.5,0.1,0.2,0.6,0.2,0.8c-0.5,6.2-0.9,12.6-1.4,18.8c-0.1,0.7-0.2,0.7-0.9,0.5c-10.1-3.4-20.2-3.4-30.3,0
					c-0.5,0.2-0.7,0.2-0.8-0.4c-0.5-6.4-1-12.9-1.5-19.3c0-0.2-0.1-0.4,0.2-0.5c0.3-0.1,0.5,0.1,0.7,0.4c0.7,1.4,1.3,2.8,2,4.3
					c1.2,2.6,2.4,5.1,3.6,7.7c0.2,0.4,0.4,0.7,0.9,0.5c0.2-0.1,0.5-0.1,0.7-0.2c1.9-0.4,1.8-0.4,2.1-2.3c0.6-3.5,1.1-7,1.8-10.5
					c0-0.2,0.1-0.5,0.2-0.7C113.3,43.3,113.4,43.3,113.5,43.3z"/>
				<path class="st1" d="M112.7,72.7c0.3,1.6-0.5,2.6-2,2.7s-2.5-0.9-2.6-2.8c-0.9,0.1-1.5,0.7-2.3,0.9c-0.3-0.9,0.1-1.4,0.9-1.9
					c1.7-0.9,3.5-1.1,5.4-0.7c1.4,0.4,2.3,1.5,2.4,2.9c-0.7-0.4-1-1.1-1.8-1.3l-0.1-0.1C112.6,72.6,112.7,72.6,112.7,72.7z"/>
				<path class="st1" d="M131.4,73.5c-0.7-0.3-1.1-0.6-1.6-0.8c-0.5-0.2-0.7-0.2-0.7,0.5c0.1,1-0.5,1.7-1.4,2.1
					c-1,0.4-2.1,0.2-2.7-0.6c-0.6-0.6-0.5-1.3-0.4-2.1c-0.5,0-0.8,0.3-1,0.5c-0.3,0.3-0.4,0.6-0.7,0.8c-0.2-1,0.3-2,1.2-2.6
					c1.7-1,5.6-0.8,7,0.7C131.5,72.4,131.3,73,131.4,73.5z"/>
				<path class="st1" d="M115.8,76.1c0.1-0.9,0.1-1.8,0-2.6c-0.4-4-3.1-5.9-7-4.7c-0.9,0.3-1.8,0.8-2.7,1.2c-0.2-1,0.4-1.6,1.2-2
					c1.6-0.8,3.3-1,5-0.7c3.8,0.8,4.7,4,4.3,6.7C116.5,75.2,116.4,75.3,115.8,76.1z"/>
				<path class="st1" d="M121.4,76.1c-2.4-3.4-0.1-8.4,3.9-8.9c1.7-0.2,3.4,0.1,5,0.9c0.8,0.4,1,0.9,0.9,1.9
					c-1.1-0.7-2.3-1.2-3.5-1.4c-3.3-0.6-5.7,1.1-6.1,4.4C121.4,73.9,121.5,75,121.4,76.1z"/>
				<path class="st2" d="M115.4,91.6c0.8-0.8,1.4-1.4,2.4-1.3c0.7,0.1,1.3,0,2,0c0.2,0,0.4,0,0.6,0c0.6,0.3,1.2,0.6,1.2,1
					s-0.9,0.2-1.2,0.2C118.8,91.6,117.2,91.6,115.4,91.6z"/>
			</g>
		</g>
	</g>
</g>
<g id="datos-camanchaca">
	<g>
		<circle class="st3" cx="100" cy="105" r="100"/>
		<text transform="matrix(1 0 0 1 54.351 45.6723)" class="st4 st5 st6 st19">CAMANCHACA</text>
		<g>
			<text transform="matrix(1 0 0 1 41.3531 60.1698)"><tspan x="0" y="0" class="st4 st7 st8 st17">Familia Fernández </tspan><tspan x="60" y="0" class="st4 st9 st10 st18">+ </tspan><tspan x="66" y="0" class="st4 st7 st8 st17">Familia Stengel</tspan></text>
		</g>
		<g>
			<rect x="85.2" y="76" class="st11" width="33.1" height="19.8"/>
			<text transform="matrix(1 0 0 1 85.1949 84.6649)" class="st4 st12 st13 st17">M USD</text>
			<text transform="matrix(1 0 0 1 61.3009 103.1405)" class="st14 st7 st15 st17">$16.320</text>
		</g>
		<g>
			<rect x="117.3" y="133.6" class="st11" width="67.3" height="9.8"/>
			<text transform="matrix(1 0 0 1 117.2736 138.6009)" class="st4 st7 st10 st17">de la cuota de jurel.</text>
			<text transform="matrix(1 0 0 1 75.9032 142.7925)" class="st4 st7 st16 st17">20%</text>
		</g>
		<g>
			<circle class="st4" cx="46.4" cy="138.5" r="22.8"/>
			<path class="st14" d="M46.4,115.7v22.4c7.6,0.5,15.2,0.9,22.8,1.4c0.1-1.3,0.4-11.4-7.7-18.4C55.4,115.8,48.3,115.7,46.4,115.7z"
				/>
		</g>
	</g>
</g>
</svg>
