<?xml version="1.0" encoding="utf-8"?>
<!-- Generator: Adobe Illustrator 24.2.3, SVG Export Plug-In . SVG Version: 6.00 Build 0)  -->
<svg version="1.1" xmlns="http://www.w3.org/2000/svg" xmlns:xlink="http://www.w3.org/1999/xlink" x="0px" y="0px"
	 viewBox="0 0 200 210" style="enable-background:new 0 0 200 210;" xml:space="preserve">
<style type="text/css">
	@import url(https://fonts.googleapis.com/css2?family=Roboto)
	@import url(https://fonts.googleapis.com/css2?family=Nunito)
	.st0{fill:none;}
	.st30{fill:#DEDEDE;}
	.st1{fill:#173B8A;}
	.st2{fill:#8CD7B3;}
	.st3{fill:#173B8B;}
	.st4{fill:#193D8A;}
	.st5{opacity:0.86;fill:#DEDEDE;}
	.st6{font-family:'Roboto';}
	.st7{font-size:14.5443px;}
	.st8{font-family:'Nunito';}
	.st9{font-size:7.1452px;}
	.st10{font-family:'Nunito';}
	.st11{font-size:7px;}
	.st12{fill:none;}
	.st13{font-family:'Roboto';}
	.st14{font-size:11.4932px;}
	.st15{fill:#FF6699;}
	.st16{font-size:21.1358px;}
	.st17{fill:#234369;}
	.st18{font-size:18.2207px;}
	.st19{font-size:7.1503px;}
	.st20{font-size:15.321px;}
	.st21{font-weight:400;}
	.st22{font-weight:300;}
	.st22{font-weight:500;}
	.st23{fill:#234369;}
</style>
<style>
	svg g#datos-corpesca {
     /* con mouse encima del svg, se muestra */
    display: none;
            }
	svg:hover g#datos-corpesca {
     /* con mouse encima del svg, se muestra */
    display: inherit;
            }
    svg:hover {
    cursor: grab;
            }
</style>
<g id="logo-corpesca">
	<g>
		<circle class="st30" cx="100" cy="105" r="100"/>
		<g>
			<g>
				<path class="st1" d="M68.5,168.9c2,0.8,2.2,2.4,2.2,4.2c0,0.5,0.1,1.1,0.3,1.4c0.3,0.4,0.9,0,1.3,0c0.5,0.1,1.1,0.1,1.6,0.2
					c0.5,0,0.7-0.2,0.7-0.7c0-3.1,0-6.2,0-9.3c0-0.8-0.5-0.7-0.9-0.7c-0.3,0-0.9,0.3-0.9-0.3c-0.1-0.7,0.6-0.5,0.9-0.4
					c2,0.1,4.1-0.3,6.1,0.2c2.6,0.6,3.6,3.1,2.2,5c-0.9,1.1-2.3,1.5-3.7,1.6c-1.4,0.1-1.4,0-1.4,1.4c0,0.8,0.1,1.5,0,2.4
					c-0.1,0.7,0.1,1,0.9,0.9c0.1,0,0.3,0,0.5,0c0.3,0,0.5,0.1,0.4,0.4c0,0.3-0.2,0.4-0.5,0.4c-1.7,0-3.5,0.1-5.2-0.1
					c-0.4,0-0.8,0-1.1,0.1c-2,0.5-3.3-0.5-3.4-2.4c-0.1-0.8-0.1-1.5-0.2-2.4c-0.2-1.2-1.8-2-3-1.5c-0.3,0.1-0.3,0.3-0.3,0.5
					c0,1.4,0,2.9,0,4.3c0,0.4,0.2,0.5,0.5,0.5s0.5,0,0.8,0s0.5,0.1,0.5,0.4s-0.2,0.4-0.5,0.4c-1.7,0-3.4,0-5,0
					c-0.3,0-0.5-0.1-0.5-0.4c0-0.3,0.2-0.4,0.5-0.4s0.5,0,0.7,0c0.5,0.1,0.7-0.2,0.7-0.7c0-3.1,0-6.2,0-9.3c0-0.5-0.2-0.7-0.7-0.7
					c-0.2,0-0.4,0-0.6,0c-0.3,0-0.5,0-0.5-0.3c0-0.4,0.2-0.5,0.5-0.5c2.1,0,4.1-0.1,6.2,0.1c1.3,0.1,2.4,1,2.7,2.3
					C70.5,167,69.8,168.1,68.5,168.9z M76.7,166.6c0,0.7,0,1.3,0,2c0,0.2,0,0.5,0.3,0.5c1.1,0.4,2.5-0.4,2.8-1.5
					c0.2-0.8,0.1-1.6,0-2.4c-0.1-0.8-1.3-1.4-2.6-1.2c-1,0.1-0.4,0.9-0.5,1.3C76.7,165.8,76.7,166.2,76.7,166.6z M64.8,166.3
					c0,0.6,0,1.1,0,1.7c0,0.2-0.1,0.5,0.3,0.6c0.7,0.3,2-0.1,2.4-0.7c0.4-0.7,0.3-2.5-0.2-3.1c-0.5-0.7-1.3-0.8-2.2-0.6
					c-0.7,0.2-0.2,0.9-0.3,1.3C64.8,165.8,64.8,166,64.8,166.3z"/>
				<path class="st1" d="M125.8,174.7c-0.5-1.2-0.9-2.4-1.3-3.4c-0.1-0.3-0.3-0.3-0.5-0.3c-0.9,0-1.8,0-2.7,0
					c-0.4,0-0.4,0.3-0.5,0.5c-0.3,0.9-0.6,1.7-1,2.6c-0.3,0.6-0.2,0.9,0.5,0.8c0.1,0,0.3,0,0.4,0c0.3,0,0.5,0,0.5,0.3
					c0,0.4-0.2,0.5-0.5,0.5c-1.5-0.1-3.1,0.2-4.6-0.1c-0.4-0.1-0.9-0.1-1.3,0.1c-2.4,0.7-4.7,0.4-6.5-1.6c-1.8-2.1-2.2-4.4-1.1-7.1
					c1-2.5,3-3.6,5.5-3.9c0.6-0.1,1.2,0.2,1.7,0.3c0.6,0.2,1.1,0.5,1.8,0c0.3-0.2,0.7-0.1,0.7,0.5c0,0.9,0,1.9,0,2.9
					c0,0.3,0,0.5-0.3,0.5s-0.5-0.1-0.5-0.3c-0.1-0.2-0.1-0.5-0.3-0.7c-0.6-1.7-1.6-2.4-3.4-2.2c-1.5,0.1-2.6,1-2.8,2.6
					c-0.4,2-0.4,3.9,0,5.9c0.3,1.7,1.4,2.6,3,2.6c2,0.1,3-0.7,3.6-2.5c0.1-0.1,0-0.3,0.1-0.5c0.1-0.3,0.2-0.5,0.6-0.5
					c0.4,0.1,0.3,0.3,0.4,0.6c0,0.6,0,1.1,0,1.7c0,0.3-0.3,0.9,0.5,0.9c0.5,0.1,1,0,1.2-0.6c0.5-1.3,0.9-2.6,1.4-3.8
					c0.9-2.2,1.7-4.5,2.6-6.7c0.1-0.3,0.2-0.7,0.7-0.7s0.6,0.4,0.7,0.7c1.3,3.4,2.6,6.9,3.9,10.3c0.2,0.7,0.5,0.9,1.1,0.8
					c0.3,0,0.7-0.1,0.7,0.3c0,0.5-0.4,0.5-0.7,0.5c-1.4,0-2.8,0-4.2,0c-0.3,0-0.7,0.2-0.8-0.4c0-0.5,0.4-0.4,0.7-0.4
					C125.2,174.7,125.5,174.7,125.8,174.7z M122.7,166.4c-0.3,0.7-0.5,1.3-0.7,1.7c-0.6,1.8-0.5,1.9,1.4,1.7c0.1,0,0.1,0,0.1,0
					c0.3,0,0.4-0.1,0.3-0.5C123.5,168.5,123.1,167.6,122.7,166.4z"/>
				<path class="st1" d="M88.6,175.6c-1.5,0-3.1,0-4.6,0c-0.3,0-0.7,0.1-0.7-0.4s0.5-0.4,0.7-0.4c0.9,0.1,1.1-0.2,1.1-1.1
					c-0.1-2.9-0.1-5.7,0-8.6c0-0.8-0.2-1.1-1-1c-0.3,0-0.9,0.2-0.8-0.4c0-0.5,0.5-0.3,0.8-0.3c2.8,0,5.6,0,8.5,0
					c0.6,0,0.9,0.1,0.8,0.8s0,1.4,0,2.2c0,0.2,0.1,0.5-0.3,0.5c-0.3,0-0.4-0.1-0.5-0.3c-0.5-2.4-2.4-2.4-4.3-2.4
					c-0.5,0-0.7,0.1-0.7,0.7c0.1,0.9,0,1.8,0,2.8c0,0.3-0.2,0.9,0.3,1s1.1,0.3,1.6-0.3c0.4-0.4,0.7-0.9,0.8-1.5
					c0.1-0.3,0.1-0.6,0.5-0.6c0.4,0.1,0.3,0.4,0.3,0.7c0,1.4,0,2.8,0,4.2c0,0.3,0.2,0.7-0.3,0.8s-0.5-0.4-0.5-0.7
					c-0.4-1.4-0.9-1.8-2-1.7c-0.4,0-0.7,0.1-0.6,0.5c0,1.4,0,2.8,0,4.2c0,0.5,0.2,0.6,0.6,0.6c0.8,0,1.6,0,2.4,0
					c1.2-0.1,2.3-1.2,2.6-2.7c0.1-0.4,0.1-0.8,0.6-0.7s0.5,0.5,0.5,0.9c0,0.9,0,1.7,0,2.7c0,0.6-0.2,0.7-0.8,0.7
					C91.7,175.6,90.1,175.6,88.6,175.6z"/>
				<path class="st1" d="M53.7,175.8c-3.6,0.2-6.1-3-6.1-6.4c0-3.2,2.3-6.3,6.1-6.5c3.5-0.1,6.1,3.2,6.1,6.5
					C59.7,172.6,56.8,176.2,53.7,175.8z M50.2,169.3c-0.1,1.5,0.1,2.9,0.7,4.2c0.6,1.2,1.7,1.5,2.9,1.4c1.1,0,2.1-0.3,2.6-1.5
					c1.1-2.6,1.1-5.1,0.2-7.7c-0.5-1.4-1.6-2-3.2-1.9c-1.3,0.1-2.3,0.8-2.8,2.2C50.2,167.2,50.1,168.2,50.2,169.3z"/>
				<path class="st1" d="M135.1,173.5c0-0.5,0-0.9,0-1.4c0-0.3,0-0.5,0.4-0.6c0.3,0,0.4,0.1,0.5,0.4c0.1,0.4,0.3,0.8,0.4,1.1
					c0.8,2,3.8,2.6,5.2,1.1c1.1-1.1,0.7-3-0.8-3.5c-1-0.4-2.1-0.7-3.1-1c-1.5-0.5-2.4-1.7-2.4-3c0.1-1.8,1.4-3.4,3-3.6
					c0.9-0.1,1.9-0.2,2.8,0.3c0.2,0.1,0.6,0.2,0.7,0.1c1.1-0.7,1.1,0,1,0.7c0,0.5,0,1.1,0,1.6c0,0.4,0.1,0.9-0.4,1s-0.5-0.5-0.5-0.8
					c-0.6-1.7-1.3-2.3-2.9-2.2c-1,0.1-2,0.7-2.1,1.5c-0.2,1.1,0.3,1.6,1.3,2c1,0.5,2.2,0.7,3.2,1.1c1.7,0.6,2.8,1.7,2.7,3.2
					s-0.7,2.9-2.2,3.6c-1.6,0.9-3.3,0.6-5,0.2c-0.2-0.1-0.4-0.2-0.6-0.1c-1.8,0.8-1.1-0.7-1.3-1.4
					C135,173.8,135.1,173.6,135.1,173.5z"/>
				<path class="st1" d="M95.7,173.4c0-0.5,0-0.9,0-1.3c0-0.3-0.1-0.6,0.3-0.6c0.3,0,0.4,0.3,0.5,0.5c0.1,0.3,0.2,0.6,0.3,0.9
					c0.9,1.8,1.9,2.4,3.8,2c1-0.1,1.8-0.9,2-2c0.2-1-0.5-1.6-1.2-2.1c-0.9-0.6-2-0.7-3.1-1.1c-2.2-0.8-3.2-2.8-2.2-4.7
					c0.9-1.7,3-2.6,5.3-1.7c0.4,0.1,0.7,0.4,1.2,0c0.3-0.3,0.5,0,0.5,0.4c0,0.9,0,1.7,0,2.7c0,0.2,0,0.5-0.3,0.5s-0.5-0.2-0.5-0.5
					c0-0.6-0.3-1.1-0.7-1.5c-0.5-0.9-1.5-1.1-2.5-1c-0.9,0.1-1.7,0.5-1.9,1.5c-0.1,0.7,0.1,1.1,0.7,1.5c1,0.8,2.2,1,3.4,1.3
					c2.3,0.7,3.4,1.9,3.1,4c-0.3,2-2,3.4-4.2,3.4c-1,0-2.1,0.1-3-0.4c-0.1-0.1-0.3,0-0.4-0.1c-0.4-0.2-0.9,0.5-1.1,0.1
					c-0.3-0.5-0.1-1.1-0.1-1.6C95.7,173.7,95.7,173.6,95.7,173.4z"/>
				<path class="st1" d="M158.2,175.6c-0.7,0-1.4,0-2.2,0c-0.3,0-0.7,0.1-0.7-0.4s0.3-0.5,0.7-0.4c0.9,0.1,1.2-0.2,0.7-1.1
					c-0.2-0.3-0.3-0.7-0.4-1c-0.3-0.6-0.2-1.5-0.9-1.7c-0.9-0.2-1.9-0.1-2.9-0.1c-0.4,0-0.5,0.5-0.6,0.7c-0.3,0.8-0.5,1.6-0.9,2.4
					c-0.3,0.6-0.1,0.8,0.5,0.7c0.2,0,0.3,0,0.5,0c0.3,0,0.5,0.1,0.4,0.4c0,0.3-0.1,0.4-0.4,0.4c-1.1,0-2.4,0-3.5,0
					c-0.3,0-0.4-0.1-0.4-0.5s0.3-0.4,0.5-0.3c1.1,0.2,1.3-0.5,1.6-1.3c1.1-3.3,2.4-6.5,3.7-9.8c0.1-0.3,0.2-0.8,0.7-0.8
					s0.6,0.5,0.7,0.7c1.1,2.8,2.1,5.5,3.2,8.2c0.2,0.6,0.5,1.2,0.7,1.8c0.2,0.7,0.5,1.3,1.4,1.1c0.3-0.1,0.5-0.1,0.6,0.4
					c0,0.5-0.3,0.4-0.6,0.4C159.6,175.6,158.9,175.6,158.2,175.6z M153.9,166.5c-0.6,1-0.9,2-1.2,3c-0.1,0.2-0.1,0.3,0.1,0.4
					c0.7,0,1.3,0.1,2,0c0.4-0.1,0.1-0.3,0.1-0.5C154.6,168.4,154.3,167.5,153.9,166.5z"/>
				<path class="st1" d="M38.5,169.5c-0.1,1.3,0.1,2.5,0.5,3.7c0.5,1.2,1.3,1.7,2.6,1.8s2.6-0.2,3.3-1.5c0.3-0.5,0.5-1,0.5-1.5
					c0.1-0.3,0.1-0.4,0.5-0.4s0.4,0.2,0.4,0.5c0,1,0,2,0,3.1c0,0.5-0.3,0.7-0.7,0.5c-0.7-0.3-1.4-0.1-2.1,0.1
					c-4,1.1-7.2-2.2-7.6-5.2c-0.5-3.5,1.8-6.5,4.5-7.1c1.2-0.3,2.4-0.3,3.6,0.2c0.5,0.2,0.8,0.4,1.3,0c0.4-0.3,0.8-0.1,0.7,0.5
					c0,0.7,0.1,1.3,0,2c-0.1,0.4,0.3,1.1-0.3,1.2c-0.7,0.1-0.5-0.6-0.7-1c-0.3-0.5-0.4-1.1-0.9-1.5c-1.6-1.3-4.6-0.9-5.2,1.5
					C38.5,167.2,38.3,168.3,38.5,169.5z"/>
				<path class="st1" d="M146.2,175.8c-0.7-0.1-1.2-0.4-1.2-1.2c0-0.7,0.5-1,1.2-1.1c0.8,0,1.2,0.5,1.2,1.2
					C147.3,175.3,147,175.8,146.2,175.8z"/>
				<path class="st1" d="M161.9,174.6c-0.1-0.9,0.5-1.2,1.2-1.2s1.1,0.5,1.1,1.2c-0.1,0.7-0.5,1.1-1.2,1.1
					C162.3,175.7,161.7,175.4,161.9,174.6z"/>
			</g>
			<g>
				<path class="st2" d="M47.8,130.7c-2.9-2.4-4.9-5.6-6.9-8.6c-3-4.6-5.2-9.5-6.8-14.7c-1.1-3.7-1.9-7.4-2.4-11.3
					c-0.6-4.2-0.7-8.4-0.4-12.5c0.3-4.8,1.1-9.5,2.5-14.1c2-6.5,4.8-12.7,8.8-18.1c1.2-1.7,2.4-3.5,4-4.9c-0.4,5.1-1,10-1.2,15.1
					c0,5.2,0,10.6,1.5,15.7c0.8,3,2,5.7,4.6,7.6c0.6,0.4,0.9,0.4,1.3-0.3c4.6-8.5,11.6-14.5,20-19c8.5-4.6,17.7-7,27.3-8
					c9.2-1,18.4-0.8,27.5,1.1c11.4,2.4,21.6,7.2,30.3,15.1c4.4,4,8.1,8.6,11.1,13.9c0,0.3,0,0.5,0,0.8c-6,11.2-15,19.5-26.3,25.1
					c-13.3,6.5-27.5,8.6-42.1,7.5c-8.9-0.7-17.2-3.4-24.9-7.8c-9.3-5.4-16.9-12.6-22.7-21.5c-0.6-1-1-1-1.6-0.1
					c-1.6,2.1-2.6,4.4-3.4,6.9c-2.3,7.2-1.7,14.4-1.2,21.7C47.1,123.7,47.4,127.2,47.8,130.7z M144.3,88.2c2.9,0,5.1-2.3,5.1-5.2
					s-2.3-5.3-5-5.4c-2.7,0-5.1,2.4-5.1,5.3S141.5,88.1,144.3,88.2z"/>
				<path class="st3" d="M168.9,87.6c-3-5.2-6.6-9.9-11.1-13.9c-8.6-7.9-18.8-12.7-30.3-15.1c-9.1-1.9-18.2-2.1-27.5-1.1
					c-9.6,1-18.8,3.4-27.3,8c-8.4,4.5-15.4,10.6-20,19c-0.4,0.7-0.7,0.7-1.3,0.3c-2.6-1.9-3.8-4.6-4.6-7.6
					c-1.4-5.1-1.5-10.5-1.3-15.8c0.2-5.1,0.8-10,1.2-15.1c5.1-6.2,11.3-11.1,18.4-15.1c6.7-3.8,14-6.4,21.6-7.9
					c5.8-1.1,11.8-1.5,17.7-1c8.4,0.5,16.4,2.4,24.1,5.8c5.5,2.4,10.6,5.5,15.4,9.2c6.5,5.1,11.9,11.3,16.1,18.4
					c3.9,6.6,6.5,13.8,7.9,21.3C168.7,80.5,169.1,84,168.9,87.6z"/>
				<path class="st3" d="M47.8,130.7c-0.3-3.5-0.7-7-1-10.5c-0.5-7.2-1-14.6,1.2-21.7c0.8-2.4,1.8-4.8,3.4-6.9
					c0.6-0.9,1-0.9,1.6,0.1c5.8,9,13.3,16.2,22.6,21.5c7.7,4.4,16,7.1,24.9,7.8c14.7,1.1,28.9-1,42.1-7.5
					c11.4-5.6,20.3-13.9,26.2-25.2c0.2,7.2-1.2,14.1-3.6,20.9c-2.5,7.1-6.2,13.5-11,19.4c-5.1,6.3-11.2,11.4-18.1,15.4
					c-7.4,4.4-15.4,7.2-23.8,8.7c-5.6,1-11.1,1.3-16.7,1c-8.4-0.4-16.4-2.4-24.2-5.8c-5.6-2.4-10.6-5.5-15.4-9.2
					c-2.8-2.2-5.3-4.5-7.7-7.1C48.1,131.4,48,131.1,47.8,130.7z"/>
				<path class="st4" d="M144.3,88.2c-2.8,0-5.1-2.4-5-5.3c0-2.9,2.4-5.3,5.1-5.3s5,2.4,5,5.4C149.3,86,147.1,88.2,144.3,88.2z"/>
			</g>
		</g>
	</g>
</g>
<g id="datos-corpesca">
	<g>
		<circle class="st5" cx="100" cy="105" r="100"/>
		<text transform="matrix(1 0 0 1 64.4268 27.6723)" class="st6 st7 st22 st23">CORPESCA</text>
		<g>
			<text transform="matrix(1 0 0 1 49.9889 37.2578)"><tspan x="0" y="0" class="st8 st9 st21 st23">Grupo Angellini </tspan><tspan x="51.4" y="0" class="st10 st11 st22 st23">+ </tspan><tspan x="57.4" y="0" class="st8 st9 st21 st23">Grupo Laceres</tspan></text>
		</g>
		<g>
			<rect x="85.2" y="50.3" class="st12" width="33.1" height="19.8"/>
			<text transform="matrix(1 0 0 1 85.1907 58.9143)" class="st13 st14 st21 st23">M USD</text>
			<text transform="matrix(1 0 0 1 61.2967 77.3899)" class="st15 st8 st16 st21">$12.556</text>
		</g>
		<g>
			<g>
				<circle class="st17" cx="22.4" cy="105.9" r="19.6"/>
				<path class="st15" d="M22.4,86.3c0,6.5,0,13.1,0,19.6l-19.6-1.2c0.1-1.5,0.4-3.8,1.5-6.4c3.1-7.4,10-10.2,11-10.6
					C16.8,87,19.2,86.3,22.4,86.3z"/>
			</g>
			<g>
				<rect x="84.5" y="96.1" class="st12" width="113.7" height="24"/>
				<text transform="matrix(1 0 0 1 84.4988 101.0647)"><tspan x="0" y="0" class="st8 st11 st21 st23">de la cuota asignada para</tspan><tspan x="0" y="8.4" class="st8 st11 st21 st23">la Anchoveta en las regiones XV e II</tspan></text>
				<text transform="matrix(1 0 0 1 45.1284 111.1563)" class="st8 st18 st21 st23">76%</text>
			</g>
		</g>
		<g>
			<path class="st17" d="M62,149c0,11.2-9.1,20.2-20.2,20.2s-20.2-9.1-20.2-20.2c0-1.7,0.2-3.4,0.6-4.9c2.2-8.8,10.2-15.3,19.6-15.3
				C52.9,128.7,62,137.8,62,149z"/>
			<path class="st15" d="M41.5,128.7v20.5L21.8,144c0.5-1.7,2.2-7.2,7.8-11.3C34.5,129.1,39.7,128.8,41.5,128.7z"/>
		</g>
		<g>
			<rect x="101.6" y="148.7" class="st12" width="82.9" height="15"/>
			<text transform="matrix(1 0 0 1 101.5562 153.8171)"><tspan x="0" y="0" class="st8 st19 st21 st23">de la cuota asignada para </tspan><tspan x="0" y="8.6" class="st8 st19 st21 st23">Sardina Española.</tspan></text>
			<text transform="matrix(1 0 0 1 64.8703 160.71)" class="st8 st20 st21 st23">79% </text>
		</g>
	</g>
</g>
</svg>
