<svg id="Capa_1" data-name="Capa 1" xmlns="http://www.w3.org/2000/svg" xmlns:xlink="http://www.w3.org/1999/xlink" viewBox="0 0 980.31 539.32"><defs><style>.cls-1,.cls-14,.cls-2{fill:none;}.cls-2{clip-path:url(#clip-path);}.cls-3{clip-path:url(#clip-path-2);}.cls-4,.cls-9{fill:#fff;}.cls-5,.cls-8,.cls-9{isolation:isolate;}.cls-5{font-size:39px;fill:#234369;font-family:Roboto-Medium, Roboto;font-weight:500;}.cls-6{letter-spacing:-0.02em;}.cls-7{letter-spacing:0.01em;}.cls-9{font-size:25px;font-family:Roboto-Regular, Roboto;}.cls-10{letter-spacing:-0.01em;}.cls-11{letter-spacing:-0.01em;}.cls-12{letter-spacing:-0.02em;}.cls-13{letter-spacing:-0.01em;}.cls-14{stroke:#fff;stroke-linecap:round;stroke-miterlimit:10;stroke-width:3px;}</style><clipPath id="clip-path"><polygon class="cls-1" points="270.78 -37.6 271.78 -37.6 270.78 -36.6 270.78 -37.6"/></clipPath><clipPath id="clip-path-2" transform="translate(-32.83 -48.52)"><polygon class="cls-2" points="268.78 -39.6 267.78 -39.6 268.78 -40.6 268.78 -39.6"/></clipPath></defs><g class="cls-3"><rect class="cls-4" x="661.45" y="441.28" width="3" height="3"/></g><text class="cls-5" transform="translate(622.9 33.36)">PESCA A<tspan class="cls-6" x="157.6" y="0">R</tspan><tspan x="180.98" y="0">TESA</tspan><tspan class="cls-7" x="276.2" y="0">N</tspan><tspan x="304.23" y="0">AL</tspan></text><image class="cls-8" width="319" height="209" transform="translate(641.29 75.25)" xlink:href="D19F564.png"/><text class="cls-5" transform="translate(69.51 33.36)">PESCA INDUSTR<tspan class="cls-7" x="292.79" y="0">I</tspan><tspan x="304.14" y="0">AL</tspan></text><image class="cls-8" width="425" height="195" transform="translate(0 70.06) scale(1.16)" xlink:href="D9EF4E73.png"/><text class="cls-9" transform="translate(62.27 431.74)">Emba<tspan class="cls-10" x="63.75" y="0">r</tspan><tspan x="71.97" y="0">caciones superior a los 18 </tspan></text><text class="cls-9" transform="translate(62.27 456.94)">met<tspan class="cls-11" x="43.32" y="0">r</tspan><tspan x="51.54" y="0">os.</tspan></text><text class="cls-9" transform="translate(62.27 482.14)">Con sistemas tales como los </text><text class="cls-9" transform="translate(62.27 507.34)">de ar<tspan class="cls-12" x="55.59" y="0">r</tspan><tspan x="63.56" y="0">ast</tspan><tspan class="cls-10" x="98.22" y="0">r</tspan><tspan x="106.45" y="0">e, palang</tspan><tspan class="cls-10" x="205.9" y="0">r</tspan><tspan x="214.12" y="0">e y de ce</tspan><tspan class="cls-10" x="311.44" y="0">r</tspan><tspan x="319.67" y="0">co, </tspan></text><text class="cls-9" transform="translate(62.27 532.54)">que permiten la captu<tspan class="cls-12" x="241.04" y="0">r</tspan><tspan x="249.01" y="0">a masi</tspan><tspan class="cls-13" x="323.27" y="0">v</tspan><tspan x="335.19" y="0">a.</tspan></text><text class="cls-9" transform="translate(619.74 431.74)">Emba<tspan class="cls-10" x="63.75" y="0">r</tspan><tspan x="71.97" y="0">caciones de hasta 18 </tspan></text><text class="cls-9" transform="translate(619.74 456.94)">met<tspan class="cls-11" x="43.32" y="0">r</tspan><tspan x="51.54" y="0">os de eslo</tspan><tspan class="cls-12" x="164.87" y="0">r</tspan><tspan x="172.84" y="0">a y 50 </tspan><tspan class="cls-11" x="244.91" y="0">t</tspan><tspan x="252.83" y="0">oneladas </tspan></text><text class="cls-9" transform="translate(619.74 482.14)">de <tspan class="cls-10" x="33.53" y="0">r</tspan><tspan x="41.76" y="0">egist</tspan><tspan class="cls-11" x="96.15" y="0">r</tspan><tspan x="104.37" y="0">o grueso.</tspan></text><line class="cls-14" x1="246.71" y1="317.8" x2="246.71" y2="388.2"/><path class="cls-4" d="M275,366.52a4.5,4.5,0,1,1,4.5,4.5A4.42,4.42,0,0,1,275,366.52Z" transform="translate(-32.83 -48.52)"/><path class="cls-4" d="M274.54,436.42a5.1,5.1,0,1,0,5.1-5.1A5.06,5.06,0,0,0,274.54,436.42Z" transform="translate(-32.83 -48.52)"/><line class="cls-14" x1="799.91" y1="317.8" x2="799.91" y2="388.2"/><path class="cls-4" d="M828.24,366.52a4.5,4.5,0,1,1,4.5,4.5A4.42,4.42,0,0,1,828.24,366.52Z" transform="translate(-32.83 -48.52)"/><path class="cls-4" d="M827.74,436.42a5.1,5.1,0,1,0,5.1-5.1A5.06,5.06,0,0,0,827.74,436.42Z" transform="translate(-32.83 -48.52)"/></svg>