<?xml version="1.0" encoding="utf-8"?>
<!-- Generator: Adobe Illustrator 24.2.3, SVG Export Plug-In . SVG Version: 6.00 Build 0)  -->
<svg version="1.1" xmlns="http://www.w3.org/2000/svg" xmlns:xlink="http://www.w3.org/1999/xlink" x="0px" y="0px"
	 viewBox="0 0 200 210" style="enable-background:new 0 0 200 210;" xml:space="preserve">
<style type="text/css">
	@import url(https://fonts.googleapis.com/css2?family=Roboto)
	@import url(https://fonts.googleapis.com/css2?family=Nunito)
	.st0{fill:none;}
	.st30{fill:#DEDEDE;}
	.st1{fill:#095158;}
	.st2{fill:#39666B;}
	.st3{opacity:0.89;fill:#DEDEDE;}
	.st4{fill:#234369;}
	.st5{font-family:'Roboto';}
	.st6{font-size:14.5443px;}
	.st7{font-family:'Nunito';}
	.st8{font-size:7.1452px;}
	.st9{font-family:'Nunito';}
	.st10{font-size:7px;}
	.st11{fill:none;}
	.st12{font-family:'Roboto-Regular';}
	.st13{font-size:11.4932px;}
	.st14{fill:#FF6699;}
	.st15{font-size:21.1358px;}
	.st16{font-size:18.2207px;}
	.st17{font-weight:300;}
	.st18{font-weight:400;}
	.st19{font-weight:500;}
</style>
<style>
	svg g#datos-orizon {
     /* con mouse encima del svg, se muestra */
    display: none;
            }
	svg:hover g#datos-orizon {
     /* con mouse encima del svg, se muestra */
    display: inherit;
            }
    svg:hover {
    cursor: grab;
            }
</style>
<g id="logo-orizon">
	<g>
		<circle class="st30" cx="100" cy="105" r="100"/>
		<g>
			<path class="st1" d="M89.5,93.1c0-2.1,0-4.4,0-6.5c3.2,0,6.5,0,9.7,0c6.5,0,13.1,0,19.6,0.1c-4.3,7.2-8.5,14.4-12.9,21.7
				c1.4-0.3,2.6-0.6,3.8-0.9c2.4-0.5,4.8-0.8,7.3-0.7c1.1,0,1.5-0.2,1.4-1.4c-0.5-13.3,12.4-23,25-18.5c12.3,4.3,16.4,18.4,9.4,28.6
				c-0.1,0.2-0.2,0.3-0.4,0.5c1.2,0.4,2,0.1,3.2-0.3c4-1.5,5.3-4.7,5.5-8.3c0.2-4.8,0.1-9.6,0.1-14.4c0-1.9,0-3.9,0-5.8
				c0-0.8,0.2-1,1-1c2.1,0.1,4.3,0.1,6.4,0c0.9,0,1.3,0.4,1.7,1c5.4,7.2,11,14.4,16.4,21.5c0.1,0.1,0.2,0.2,0.3,0.3
				c0.4-0.3,0.2-0.8,0.2-1.1c0-6.8,0-13.6,0-20.3c0-0.4-0.2-0.9,0.1-1.4c0.1,0,0.3,0,0.4,0c2.4,0,4.8,0,7.4,0c0.1,0,0.2,0.1,0.3,0.1
				c0.3,0.4,0.1,0.8,0.1,1.2c0,11.1,0,22.1,0,33.2c0,1.1-0.3,1.4-1.4,1.4c-2.1-0.1-4.4-0.1-6.5-0.1c-0.1,0-0.3,0-0.4-0.1
				c-3.4-4.3-6.7-8.4-10.1-12.7c-2.5-3.2-5-6.5-7.8-10c0,1.6,0,2.8,0,4.1c0,2.7,0,5.5-0.6,8.2c-1.6,6.7-6.2,10.9-13.4,12.2
				c-7.7,1.4-14.7-0.4-21.5-3.9c-3.7-1.9-7.4-3.8-11.5-4.5c-8.4-1.6-16.1,0.5-23,5.4c-0.3,0.2-0.5,0.4-0.8,0.6
				c-2.9,0.5-5.8,0.1-8.7,0.3c-0.9,0-0.6-0.6-0.8-1c0-0.1,0-0.1,0.1-0.1h0.1c0,0-0.1,0-0.1-0.1c4.8-8.1,9.7-16.3,14.5-24.5
				c0.4-0.6,0.8-1.3,1.2-1.8c0.2,0,0.4-0.1,0.5-0.3c0-0.1-0.2-0.1-0.3-0.2v-0.1c-0.3-0.7-1-0.4-1.5-0.4
				C98.8,93.1,94.1,93.1,89.5,93.1z M138.4,93.5c-4.6-0.1-7.4,1.1-9.5,3.4c-2.2,2.4-3.2,5.4-2.9,8.8c0.1,1.5,0.6,2.3,2.1,2.7
				c2.8,0.7,5.3,1.8,7.8,3.3c1.3,0.8,2.5,1.4,3.8,2.1c1.4,0.8,2.6,1,4.1-0.1c1-0.7,1.6-1.6,2.3-2.4c2.5-3.7,3-7.6,1-11.6
				C145,95.6,141.6,93.7,138.4,93.5z"/>
			<path class="st1" d="M41.6,104.7c0,10.4-8.4,18.8-18.9,18.7c-10.5,0-18.8-8.4-18.8-18.9s8.5-18.9,19-18.8
				C33.2,85.8,41.6,94.2,41.6,104.7z M11.6,104.5c0,6.1,4.9,11.2,11.1,11.2c6.4-0.1,11.2-4.7,11.2-11.2c0.1-6.1-5-11.1-11.2-11.1
				S11.6,98.4,11.6,104.5z"/>
			<path class="st1" d="M57.9,86.3c2,0,4,0.6,5.9,1.4c5.2,2.3,7,9.6,3.8,14c-1.2,1.6-2.6,3.2-4.7,4c3.7,4.2,6.2,9,8.9,13.7
				c0,0,0,0.1-0.1,0.1l0.1-0.1c0.1,0,0.1,0.1,0.1,0.1c-0.1,0.7,0,1.2,0.8,1.3v0.1c-0.2,0.8-0.9,0.7-1.5,0.7c-2.5,0-5,0-7.6,0.1
				c-0.1-0.1-0.1-0.3-0.2-0.4l0.1-0.1l-0.1,0.1c-0.1,0-0.1-0.1-0.1-0.2c0.2-0.5,0-0.8-0.5-0.9c-2-3.4-3.9-6.9-6.1-10.2
				c-0.7-1-1.4-1.6-2.7-1.6c-0.9,0.1-1.3,0.2-1.2,1.2c0.1,3.6,0,7.2,0,10.8c0,0.4,0.2,0.9-0.1,1.4c-0.1,0-0.2,0.1-0.3,0.1
				c-2.2,0-4.5,0-6.8,0c-0.3-0.5-0.8-0.3-1.2-0.4c0-11.6,0-23.3,0-34.9c4,0,8,0,11.9,0C57.1,86.5,57.6,86.7,57.9,86.3z M53,97.6
				c0,0.6,0,1.1,0,1.6c0,3.6,0,3.6,3.7,3.2c2.5-0.3,4.4-2.5,4.4-5.1c-0.1-2.4-1.8-4.2-4.5-4.4c-0.9-0.1-1.8,0-2.7,0
				c-0.8-0.1-0.9,0.3-0.9,1C53,95.1,53,96.4,53,97.6z"/>
			<path class="st1" d="M84.5,121.9c-2.5,0-5,0-7.6,0c-0.1,0-0.2-0.1-0.3-0.1c0-0.3-0.1-0.5-0.1-0.8c0-11.2,0-22.6,0-33.8
				c0-0.3,0.1-0.5,0.1-0.8c0.1,0,0.2-0.1,0.3-0.1c2.5,0,5,0,7.6,0c0.1,0,0.2,0.1,0.3,0.1c0.2,11.8,0.2,23.7,0,35.5
				C84.7,121.8,84.6,121.8,84.5,121.9z"/>
			<path class="st2" d="M118.8,86.6c-6.5,0-13.1,0-19.6-0.1c-3.2,0-6.5,0-9.7,0c0.1-1,0.9-0.5,1.3-0.5c8.9,0,17.8,0,26.8,0
				c0.4,0,0.8-0.1,1.3,0C118.9,86.1,118.9,86.4,118.8,86.6z"/>
			<path class="st2" d="M89.5,93.1c4.7,0,9.3,0,14.1,0c0.5,0,1.1-0.3,1.5,0.4c-4.8,0-9.7,0-14.6,0C90,93.5,89.4,93.8,89.5,93.1z"/>
			<path class="st2" d="M57.9,86.3c-0.4,0.4-1,0.3-1.5,0.3c-4,0-8,0-11.9,0c-0.1-0.4,0.2-0.5,0.5-0.5C49.4,86.2,53.7,85.8,57.9,86.3
				z"/>
			<path class="st2" d="M89,120.5c0.2,0.4-0.1,1,0.8,1c2.9-0.2,5.8,0.3,8.7-0.3c-0.3,0.4-0.6,0.7-1.1,0.7c-3,0-6,0-9.1,0
				C88.3,121.3,88.7,120.9,89,120.5z"/>
			<path class="st2" d="M63.8,121.6c2.5,0,5,0,7.6-0.1c0.6,0,1.2,0.1,1.5-0.7c0.2,0.3,0.7,0.6,0.4,1c-0.1,0.2-0.6,0.1-0.9,0.1
				c-2.4,0-4.9,0-7.4,0C64.5,122,64.1,122.2,63.8,121.6z"/>
			<path class="st2" d="M72.7,120.8c-0.8-0.2-0.9-0.7-0.8-1.3C72.2,119.9,72.5,120.3,72.7,120.8z"/>
			<path class="st2" d="M44.7,121.5c0.4,0.1,0.9-0.1,1.2,0.4C45.3,121.9,44.9,122.3,44.7,121.5z"/>
			<path class="st2" d="M63,120.1c0.5,0.1,0.7,0.4,0.5,0.9C63.3,120.7,63.2,120.4,63,120.1z"/>
			<path class="st2" d="M104.9,93.6c0.1,0.1,0.3,0.1,0.3,0.2c0,0.2-0.2,0.3-0.5,0.3C104.8,93.9,104.9,93.8,104.9,93.6z"/>
			<path class="st2" d="M77,86.1c-0.1,0-0.2,0.1-0.3,0.1C76.8,86.1,76.8,86,77,86.1z"/>
			<path class="st2" d="M84.8,86.3c-0.1,0-0.2-0.1-0.3-0.1C84.7,86,84.8,86.1,84.8,86.3z"/>
			<path class="st2" d="M187.5,86.1c-0.1,0-0.3,0-0.4,0C187.2,86.2,187.3,86.2,187.5,86.1z"/>
			<path class="st2" d="M195.2,86.2c-0.1,0-0.2-0.1-0.3-0.1C195,86,195.1,86.1,195.2,86.2z"/>
			<path class="st2" d="M71.9,119.4C71.8,119.4,71.8,119.4,71.9,119.4C71.8,119.4,71.8,119.4,71.9,119.4
				C71.8,119.3,71.9,119.4,71.9,119.4z"/>
			<path class="st2" d="M89.1,120.4C89.1,120.4,89.2,120.4,89.1,120.4C89.2,120.4,89.1,120.4,89.1,120.4L89.1,120.4z"/>
			<path class="st2" d="M63.6,121.2C63.6,121.1,63.7,121.1,63.6,121.2C63.7,121.1,63.6,121.1,63.6,121.2L63.6,121.2z"/>
			<path class="st2" d="M52.6,121.9c0.1,0,0.2-0.1,0.3-0.1C52.8,121.9,52.7,122,52.6,121.9z"/>
			<path class="st2" d="M76.7,121.7c0.1,0,0.2,0.1,0.3,0.1C76.8,122,76.8,121.9,76.7,121.7z"/>
			<path class="st2" d="M84.5,121.9c0.1,0,0.2-0.1,0.3-0.1C84.8,121.9,84.7,122,84.5,121.9z"/>
			<path class="st2" d="M187.1,121.8c0.1,0,0.3,0,0.4,0.1C187.3,122,187.2,121.9,187.1,121.8z"/>
		</g>
	</g>
</g>
<g id="datos-orizon">
	<g>
		<circle class="st3" cx="100" cy="105" r="100"/>
		<text transform="matrix(1 0 0 1 73.7489 48.6723)" class="st4 st5 st6 st19">ORIZON</text>
		<text transform="matrix(1 0 0 1 48.2393 58.2578)"><tspan x="0" y="0" class="st4 st7 st8 st18">Grupo Angellini </tspan><tspan x="51.4" y="0" class="st4 st9 st10 st17">+ </tspan><tspan x="57.4" y="0" class="st4 st7 st8 st18">Grupo Laceres</tspan></text>
		<rect x="81.3" y="72.3" class="st11" width="37.5" height="19.8"/>
		<text transform="matrix(1 0 0 1 81.2628 80.9139)" class="st4 st12 st13 st18">M USD</text>
		<text transform="matrix(1 0 0 1 65.8877 99.3899)" class="st14 st7 st15 st18">$22.560</text>
		<g>
			<rect x="111" y="119.9" class="st11" width="81.8" height="24"/>
			<text transform="matrix(1 0 0 1 111.0167 124.8561)"><tspan x="0" y="0" class="st4 st7 st10 st18">de la cuota asignada para</tspan><tspan x="0" y="8.4" class="st4 st7 st10 st18">el Jurel.</tspan></text>
			<text transform="matrix(1 0 0 1 71.6468 134.9477)" class="st4 st7 st16 st18">23%</text>
			<g>
				<ellipse class="st4" cx="40.2" cy="127.5" rx="27.1" ry="25.9"/>
				<path class="st14" d="M41.6,101.6v25.9c8.6-0.7,17.1-1.3,25.7-2c-0.2-2.1-0.7-5.3-2.4-8.9c-1.1-2.3-3.9-8.1-10.6-11.9
					C49.1,101.9,44.2,101.6,41.6,101.6z"/>
			</g>
		</g>
	</g>
</g>
</svg>
